<svg width="106" height="50" viewBox="0 0 106 50" fill="none" xmlns="http://www.w3.org/2000/svg">
<path d="M45 0C47.7614 6.44256e-07 50 2.23858 50 5H55.9971V45H50L49.9932 45.2568C49.8595 47.8989 47.6753 50 45 50H5C2.23858 50 4.02673e-08 47.7614 0 45V5C6.44277e-07 2.23858 2.23858 4.0266e-08 5 0H45ZM101 0C103.761 6.44256e-07 106 2.23858 106 5V45C106 47.7614 103.761 50 101 50H61C58.2386 50 56 47.7614 56 45V5C56 2.23858 58.2386 4.0266e-08 61 0H101Z" fill="#B0B0B0"/>
<path d="M21.4725 21.84C21.4725 21.2 21.1525 20.88 20.5125 20.88H17.7925C17.1525 20.88 16.8325 21.2 16.8325 21.84V26.96C16.8325 27.6 17.1525 27.92 17.7925 27.92H20.5125C21.1525 27.92 21.4725 27.6 21.4725 26.96V21.84ZM24.3525 26.96C24.3525 28.08 24.0965 28.896 23.5845 29.408C23.0832 29.9093 22.2725 30.16 21.1525 30.16H17.1525C16.0325 30.16 15.2165 29.9093 14.7045 29.408C14.2032 28.896 13.9525 28.08 13.9525 26.96V21.84C13.9525 20.72 14.2032 19.9093 14.7045 19.408C15.2165 18.896 16.0325 18.64 17.1525 18.64H21.1525C22.2725 18.64 23.0832 18.896 23.5845 19.408C24.0965 19.9093 24.3525 20.72 24.3525 21.84V26.96ZM35.72 30H32.68L28.84 23.28V30H25.96V18.8H29L32.84 25.52V18.8H35.72V30Z" fill="#242424"/>
<path d="M73.3163 21.84C73.3163 21.2 72.9963 20.88 72.3563 20.88H69.6363C68.9963 20.88 68.6763 21.2 68.6763 21.84V26.96C68.6763 27.6 68.9963 27.92 69.6363 27.92H72.3563C72.9963 27.92 73.3163 27.6 73.3163 26.96V21.84ZM76.1963 26.96C76.1963 28.08 75.9403 28.896 75.4283 29.408C74.9269 29.9093 74.1163 30.16 72.9963 30.16H68.9963C67.8763 30.16 67.0603 29.9093 66.5483 29.408C66.0469 28.896 65.7963 28.08 65.7963 26.96V21.84C65.7963 20.72 66.0469 19.9093 66.5483 19.408C67.0603 18.896 67.8763 18.64 68.9963 18.64H72.9963C74.1163 18.64 74.9269 18.896 75.4283 19.408C75.9403 19.9093 76.1963 20.72 76.1963 21.84V26.96ZM80.6838 30H77.8038V18.8H86.6838V21.04H80.6838V23.68H85.4038V25.92H80.6838V30ZM90.6838 30H87.8038V18.8H96.6838V21.04H90.6838V23.68H95.4038V25.92H90.6838V30Z" fill="#242424"/>
</svg>
