<svg xmlns="http://www.w3.org/2000/svg" width="150" height="70" viewBox="0 0 150 70">
    <path fill="#A9A9A9" fill-rule="evenodd" d="M0 5C0 2.23858 2.23858 0 5 0H65C67.7614 0 70 2.23858 70 5V6H80V5C80 2.23858 82.2386 0 85 0H145C147.761 0 150 2.23858 150 5V65C150 67.7614 147.761 70 145 70H85C82.2386 70 80 67.7614 80 65H70C70 67.7614 67.7614 70 65 70H5C2.23858 70 0 67.7614 0 65V5Z"/>
    <path fill="#D3D3D3" d="M104.2 31.8C104.2 31 103.8 30.6 103 30.6H99.6C98.8 30.6 98.4 31 98.4 31.8V38.2C98.4 39 98.8 39.4 99.6 39.4H103C103.8 39.4 104.2 39 104.2 38.2V31.8ZM107.8 38.2C107.8 39.6 107.48 40.62 106.84 41.26C106.213 41.8867 105.2 42.2 103.8 42.2H98.8C97.4 42.2 96.38 41.8867 95.74 41.26C95.1133 40.62 94.8 39.6 94.8 38.2V31.8C94.8 30.4 95.1133 29.3867 95.74 28.76C96.38 28.12 97.4 27.8 98.8 27.8H103.8C105.2 27.8 106.213 28.12 106.84 28.76C107.48 29.3867 107.8 30.4 107.8 31.8V38.2ZM113.409 42H109.809V28H120.909V30.8H113.409V34.1H119.309V36.9H113.409V42ZM125.909 42H122.309V28H133.409V30.8H125.909V34.1H131.809V36.9H125.909V42Z"/>
</svg>
